<svg xmlns="http://www.w3.org/2000/svg" enable-background="new 0 0 600 600" viewBox="0 0 600 600"><path fill="#e9e7ff" d="M65.878 321.64a42.085 42.085 0 0 0-17.113 3.602 185.194 185.194 0 0 0 4.795 20.886c14.194-9.72 34.227.264 34.227 18.114 0 10.742-7.715 19.671-17.903 21.525a195.029 195.029 0 0 0 11.231 18.242c15.984-6.137 27.365-21.652 27.365-39.767 0-23.485-19.117-42.602-42.602-42.602zM505.56 375.431c0 19.309 12.893 35.655 30.539 40.854a96.804 96.804 0 0 0 11.081-18.967c-11.636-.49-20.948-10.102-20.948-21.887 0-12.083 9.824-21.909 21.908-21.909 2.322 0 4.539.363 6.65 1.023a99.137 99.137 0 0 0-3.816-21.588 31.171 31.171 0 0 0-2.834-.107c-23.486 0-42.58 19.096-42.58 42.581z"/><path fill="#e9e7ff" d="M45.387 316.57c5.707-2.241 11.907-3.455 18.405-3.455 28.196 0 51.126 22.931 51.126 51.126 0 20.956-12.658 39.002-30.745 46.848 11.691 15.424 25.696 29.192 41.593 40.492h360.869c16.05-5.676 30.416-15.609 41.644-28.226-19.434-7.218-33.326-25.973-33.326-47.927 0-28.133 22.869-51.043 50.971-51.104-6.406-16.298-17.069-30.982-31.115-41.789-32.606-25.07-77.994-28.256-112.286-51.043-19.568-12.997-34.16-31.454-49.316-49.418-9.223 9.141-21.953 14.807-35.948 14.807-28.205 0-51.135-22.93-51.135-51.125a50.73 50.73 0 0 1 5.84-23.681c-42.58-14.489-91.36-12.226-131.216 8.72-34.468 18.107-61.357 47.587-77.953 82.065a180.321 180.321 0 0 0-5.059 11.465v.01a184.923 184.923 0 0 0-6.139 17.666v.01a184.508 184.508 0 0 0-3.136 12.144 184.935 184.935 0 0 0-4.34 33.45c-.36 9.675.083 19.372 1.266 28.966z"/><circle cx="311.673" cy="151.423" r="24.908" fill="#e9e7ff"/><path fill="#fff" d="M366.821 451.581h40.442a24.7 24.7 0 0 0 3.907-8.36c3.414-13.325-4.616-26.899-17.943-30.312-13.326-3.414-26.9 4.627-30.313 17.953-1.902 7.434-.247 14.94 3.907 20.72z"/><circle cx="387.042" cy="437.04" r="12.757" fill="#e9e7ff"/><circle cx="427.749" cy="316.251" r="15.033" fill="#fff"/><circle cx="427.749" cy="316.251" r="7.699" fill="#e9e7ff"/><circle cx="326.709" cy="264.114" r="15.033" fill="#fff"/><circle cx="326.709" cy="264.114" r="7.699" fill="#e9e7ff"/><circle cx="258.386" cy="359.469" r="15.033" fill="#fff"/><circle cx="258.386" cy="359.469" r="7.699" fill="#e9e7ff"/><path fill="#fff" d="M48.461 254.155a22.424 22.424 0 0 0 7.023 3.147c12.092 3.094 24.411-4.196 27.506-16.288 3.105-12.093-4.195-24.411-16.288-27.506a21.696 21.696 0 0 0-3.907-.648 180.321 180.321 0 0 0-5.059 11.465v.01a184.923 184.923 0 0 0-6.139 17.666v.01a184.508 184.508 0 0 0-3.136 12.144z"/><path fill="#e9e7ff" d="M51.597 242v.011a11.475 11.475 0 0 0 6.622 4.607c6.2 1.583 12.504-2.15 14.098-8.34 1.583-6.2-2.15-12.503-8.35-14.087a11.526 11.526 0 0 0-6.23.134v.01a184.923 184.923 0 0 0-6.14 17.666z"/><circle cx="189.735" cy="236.974" r="15.033" fill="#fff"/><circle cx="189.735" cy="236.974" r="7.699" fill="#e9e7ff"/><circle cx="142.441" cy="285.234" r="11.905" fill="#fff"/><circle cx="142.441" cy="285.234" r="6.097" fill="#e9e7ff"/><circle cx="131.234" cy="214.047" r="11.905" fill="#fff"/><circle cx="131.234" cy="214.047" r="6.097" fill="#e9e7ff"/><circle cx="421.489" cy="378.806" r="11.905" fill="#fff"/><circle cx="421.489" cy="378.806" r="6.097" fill="#e9e7ff"/><path fill="#452b99" d="M403.973 170.11v226.341c0 8.44-6.827 15.267-15.266 15.267h-243.83c-8.44 0-15.267-6.828-15.267-15.267V170.11c0-8.42 6.828-15.267 15.267-15.267h243.83c8.439 0 15.266 6.847 15.266 15.267z"/><path fill="#8f6dff" d="M133.381 396.842V185.447c0-6.135 4.974-11.109 11.11-11.109h244.606c6.136 0 11.11 4.974 11.11 11.11v211.394c0 6.136-4.974 11.11-11.11 11.11H144.49c-6.135 0-11.109-4.974-11.109-11.11z"/><path d="M393.608 363.228v30.4a3.575 3.575 0 0 1-3.576 3.566h-104.36a3.573 3.573 0 0 1-3.566-3.566v-30.286c0-2.04 1.65-3.7 3.69-3.7h104.227a3.594 3.594 0 0 1 3.585 3.586zM388.672 345.968H229.647a4.812 4.812 0 0 1-4.812-4.812v-65.144a4.812 4.812 0 0 1 4.812-4.812h159.025a4.812 4.812 0 0 1 4.812 4.812v65.144a4.812 4.812 0 0 1-4.812 4.812z" opacity=".1"/><path fill="#6737c1" d="M392.13 360.978v30.4a3.575 3.575 0 0 1-3.576 3.566h-104.36a3.573 3.573 0 0 1-3.566-3.566v-30.286c0-2.04 1.65-3.7 3.69-3.7h104.226a3.594 3.594 0 0 1 3.586 3.586z"/><path fill="#452b99" d="M299.269 357.565h.97v37.213h-.97zM317.58 357.565h.97v37.213h-.97zM335.892 357.565h.97v37.213h-.97zM354.203 357.565h.97v37.213h-.97zM372.514 357.565h.97v37.213h-.97z"/><path fill="#452b99" d="M280.628 375.682H392.13v.973H280.628z"/><path d="M206.793 396.928h-56.14a5.572 5.572 0 0 1-5.572-5.573v-196.71a5.572 5.572 0 0 1 5.572-5.573h56.14a5.572 5.572 0 0 1 5.572 5.572v196.711a5.572 5.572 0 0 1-5.572 5.573z" opacity=".1"/><path fill="#8f6dff" d="M146.467 168.814a2.828 2.828 0 0 1-3.255-2.35 2.846 2.846 0 0 1 2.359-3.254c1.547-.245 3 .812 3.245 2.359a2.83 2.83 0 0 1-2.349 3.245zM154.49 168.814a2.828 2.828 0 0 1-3.256-2.35 2.846 2.846 0 0 1 2.359-3.254c1.547-.245 3 .812 3.245 2.359a2.83 2.83 0 0 1-2.349 3.245zM162.511 168.814a2.828 2.828 0 0 1-3.255-2.35 2.846 2.846 0 0 1 2.359-3.254c1.547-.245 3 .812 3.245 2.359a2.83 2.83 0 0 1-2.349 3.245z"/><path fill="#6737c1" d="M204.889 395.073h-56.14a5.572 5.572 0 0 1-5.572-5.573V192.79a5.572 5.572 0 0 1 5.572-5.573h56.14a5.572 5.572 0 0 1 5.572 5.572V389.5a5.572 5.572 0 0 1-5.572 5.573z"/><path d="M204.799 249.098v10.948c0 .858-.687 1.554-1.555 1.554h-12.54a1.565 1.565 0 0 1-1.572-1.554v-10.948c0-.858.705-1.564 1.573-1.564h12.54c.867 0 1.554.706 1.554 1.564zM150.607 267.932h54.192v2.927h-54.192zM204.799 302.928v30.295a2.796 2.796 0 0 1-2.785 2.794h-48.623a2.796 2.796 0 0 1-2.784-2.794v-30.295a2.788 2.788 0 0 1 2.784-2.785h48.623a2.788 2.788 0 0 1 2.785 2.785zM169.87 260.046v-10.948c0-.858.705-1.564 1.563-1.564h12.55c.857 0 1.554.706 1.554 1.564v10.948c0 .858-.697 1.554-1.555 1.554h-12.549a1.563 1.563 0 0 1-1.564-1.554zM150.607 290.426h54.192v2.928h-54.192zM150.607 260.046v-10.948a1.57 1.57 0 0 1 1.564-1.564h12.549c.858 0 1.554.706 1.554 1.564v10.948c0 .858-.696 1.554-1.554 1.554h-12.55a1.563 1.563 0 0 1-1.563-1.554zM150.607 275.427h54.192v2.928h-54.192zM150.607 282.922h54.192v2.937h-54.192z" opacity=".1"/><circle cx="177.483" cy="216.207" r="17.855" opacity=".1"/><circle cx="176.155" cy="215.202" r="17.855" fill="#fff"/><circle cx="176.21" cy="209.126" r="4.398" fill="#ff2e56"/><path fill="#ff2e56" d="M185.97 223.95c-.395-5.063-4.604-9.057-9.77-9.067-5.166-.01-9.39 3.97-9.804 9.031l19.574.036z"/><path fill="#8f6dff" d="M203.913 247.846v10.947c0 .858-.687 1.554-1.554 1.554h-12.54a1.565 1.565 0 0 1-1.573-1.554v-10.947c0-.859.705-1.564 1.573-1.564h12.54c.867 0 1.554.705 1.554 1.564zM149.721 266.679h54.192v2.927h-54.192zM203.913 301.675v30.295a2.796 2.796 0 0 1-2.785 2.794h-48.622a2.796 2.796 0 0 1-2.785-2.794v-30.295a2.788 2.788 0 0 1 2.785-2.785h48.622a2.788 2.788 0 0 1 2.785 2.785zM168.983 258.793v-10.947c0-.859.706-1.564 1.564-1.564h12.55c.858 0 1.554.705 1.554 1.564v10.947c0 .858-.696 1.554-1.555 1.554h-12.549a1.563 1.563 0 0 1-1.564-1.554zM149.721 289.174h54.192v2.928h-54.192zM149.721 258.793v-10.947a1.57 1.57 0 0 1 1.564-1.564h12.549c.858 0 1.554.705 1.554 1.564v10.947c0 .858-.696 1.554-1.554 1.554h-12.549a1.563 1.563 0 0 1-1.564-1.554zM149.721 274.174h54.192v2.928h-54.192zM149.721 281.669h54.192v2.937h-54.192z"/><path d="M317.627 193.497v63.016c0 2.226-1.882 4.029-4.205 4.029h-83.975c-2.324 0-4.205-1.803-4.205-4.029v-63.016c0-2.227 1.881-4.03 4.205-4.03h83.975c2.323 0 4.205 1.803 4.205 4.03z" opacity=".1"/><path fill="#6737c1" d="M315.867 191.137v63.017c0 2.226-1.882 4.028-4.205 4.028h-83.975c-2.324 0-4.205-1.802-4.205-4.028v-63.017c0-2.226 1.881-4.029 4.205-4.029h83.975c2.323 0 4.205 1.803 4.205 4.029z"/><path d="M403.973 190.24v71.08h-70.726c-2.318 0-4.206-1.812-4.206-4.034v-63.013c0-2.23 1.888-4.033 4.206-4.033h70.726z" opacity=".1"/><path fill="#6737c1" d="M418.273 191.137v63.017c0 2.226-1.882 4.028-4.205 4.028h-83.976c-2.323 0-4.205-1.802-4.205-4.028v-63.017c0-2.226 1.882-4.029 4.205-4.029h83.976c2.323 0 4.205 1.803 4.205 4.029z"/><g opacity=".1"><path d="M307.927 248.435h-75.492a.477.477 0 1 1 0-.953h75.492a.477.477 0 1 1 0 .953z"/><path d="M232.435 248.435a.477.477 0 0 1-.477-.477V198.18a.477.477 0 1 1 .954 0v49.778a.477.477 0 0 1-.477.477zM307.927 248.435a.477.477 0 0 1-.477-.477V198.18a.477.477 0 1 1 .954 0v49.778a.477.477 0 0 1-.477.477zM288.853 248.435a.477.477 0 0 1-.477-.477V198.18a.477.477 0 1 1 .954 0v49.778a.477.477 0 0 1-.477.477zM269.779 248.435a.477.477 0 0 1-.477-.477V198.18a.477.477 0 1 1 .953 0v49.778a.477.477 0 0 1-.476.477zM250.704 248.435a.477.477 0 0 1-.477-.477V198.18a.477.477 0 1 1 .954 0v49.778a.477.477 0 0 1-.477.477z"/><path d="M307.447 233.083h-75.013a.477.477 0 1 1 0-.953h75.013a.477.477 0 1 1 0 .953zM307.447 214.009h-75.013a.477.477 0 1 1 0-.954h75.013a.477.477 0 1 1 0 .954z"/><path d="M232.693 248.912a.953.953 0 0 1-.142-1.897c14.117-2.144 26.971-9.715 34.386-20.254.977-1.39 1.916-2.851 2.824-4.265a136.14 136.14 0 0 1 2.585-3.924c4.892-7.067 10.528-12.266 16.752-15.451 6.38-3.266 13.009-4.804 18.65-5.878a.954.954 0 0 1 .357 1.874c-5.509 1.048-11.973 2.546-18.138 5.701-5.941 3.041-11.342 8.034-16.053 14.84-.876 1.265-1.726 2.589-2.549 3.87-.918 1.429-1.868 2.908-2.868 4.33-7.708 10.956-21.039 18.822-35.66 21.043a.957.957 0 0 1-.144.01z"/></g><circle cx="307.447" cy="198.272" r="3.681" opacity=".1"/><circle cx="276.778" cy="213.532" r="3.681" opacity=".1"/><circle cx="259.705" cy="234.486" r="3.681" opacity=".1"/><path fill="#8f6dff" d="M307.457 248.011h-75.492a.477.477 0 1 1 0-.953h75.492a.477.477 0 1 1 0 .953z"/><path fill="#8f6dff" d="M231.965 248.011a.477.477 0 0 1-.477-.476v-49.779a.477.477 0 1 1 .954 0v49.779a.477.477 0 0 1-.477.476zM307.457 248.011a.477.477 0 0 1-.476-.476v-49.779a.477.477 0 1 1 .953 0v49.779a.477.477 0 0 1-.477.476zM288.383 248.011a.477.477 0 0 1-.477-.476v-49.779a.476.476 0 1 1 .954 0v49.779a.477.477 0 0 1-.477.476zM269.309 248.011a.477.477 0 0 1-.477-.476v-49.779a.476.476 0 1 1 .954 0v49.779a.477.477 0 0 1-.477.476zM250.234 248.011a.477.477 0 0 1-.476-.476v-49.779a.477.477 0 1 1 .953 0v49.779a.477.477 0 0 1-.477.476z"/><path fill="#8f6dff" d="M306.977 232.66h-75.012a.477.477 0 1 1 0-.954h75.012a.477.477 0 1 1 0 .954zM306.977 213.585h-75.012a.477.477 0 1 1 0-.954h75.012a.477.477 0 1 1 0 .954z"/><path fill="#ff2e56" d="M232.223 248.488a.953.953 0 0 1-.142-1.896c14.117-2.144 26.972-9.716 34.386-20.255.977-1.389 1.916-2.85 2.824-4.264.83-1.294 1.69-2.632 2.585-3.925 4.892-7.067 10.528-12.265 16.752-15.451 6.38-3.265 13.009-4.804 18.651-5.878a.954.954 0 0 1 .357 1.874c-5.51 1.049-11.973 2.546-18.14 5.702-5.94 3.04-11.341 8.033-16.052 14.84-.876 1.264-1.726 2.588-2.548 3.868-.919 1.43-1.868 2.91-2.869 4.332-7.708 10.955-21.038 18.822-35.66 21.042a.957.957 0 0 1-.144.011z"/><circle cx="306.977" cy="197.848" r="3.681" fill="#fcc922"/><circle cx="276.308" cy="213.108" r="3.681" fill="#fcc922"/><circle cx="259.235" cy="234.062" r="3.681" fill="#fcc922"/><circle cx="231.965" cy="246.282" r="3.681" fill="#fcc922"/><path d="M384.634 374.156c-.115.166-.216.346-.326.518a2.17 2.17 0 0 0-2.627 2.116c0 .557.215 1.06.56 1.444-.948 1.642-1.972 3.097-3.528 3.913-2.87 1.507-6.446.114-8.63-1.545-1.602-1.211-2.937-2.708-4.339-4.281-.849-.945-1.716-1.927-2.641-2.833-1.477-1.431-3.526-3.008-5.9-3.745a2.17 2.17 0 0 0-1.972-1.27c-.733 0-1.377.364-1.77.918-4.197.548-7.054 4.142-9.582 7.311l-.544.677c-1.426 1.775-3.863 4.304-6.628 5.117a2.168 2.168 0 0 0-1.96-1.246c-.799 0-1.49.436-1.867 1.077-2.116-.886-3.447-2.965-4.85-5.177-.791-1.268-1.621-2.574-2.622-3.68-1.417-1.574-3.317-2.712-5.455-3.331a2.169 2.169 0 0 0-2.108-1.666c-.828 0-1.54.469-1.906 1.148-3.325.057-6.433 1.34-8.563 3.553-1.078 1.115-1.917 2.412-2.728 3.662-.553.839-1.115 1.716-1.745 2.507-.688.883-2.38 2.735-4.527 3.119a2.165 2.165 0 0 0-2.162-2.067c-.726 0-1.364.36-1.759.904-1.105-.9-2.062-2.181-3.042-3.52-.601-.81-1.221-1.65-1.879-2.403-2.098-2.384-5.054-4.004-8.363-4.605v1.487c2.88.563 5.445 2.003 7.276 4.082.61.696 1.211 1.516 1.793 2.298 1.148 1.57 2.329 3.167 3.83 4.205a2.164 2.164 0 0 0 2.144 1.889c.655 0 1.234-.296 1.633-.753 2.162-.1 4.383-1.42 6.21-3.74.658-.838 1.24-1.744 1.812-2.612.81-1.25 1.573-2.432 2.556-3.452 1.804-1.875 4.44-2.965 7.294-3.094a2.164 2.164 0 0 0 4.067.513c1.783.558 3.36 1.531 4.544 2.848.916 1.02 1.707 2.27 2.47 3.48 1.516 2.409 3.098 4.872 5.813 5.868a2.168 2.168 0 0 0 2.134 1.797c1.009 0 1.849-.69 2.093-1.621 3.257-.849 6.024-3.68 7.63-5.672l.543-.686c2.344-2.934 4.755-5.969 8.075-6.68a2.164 2.164 0 0 0 2.143 1.882c.964 0 1.772-.632 2.055-1.502 1.896.713 3.564 2.027 4.796 3.23.897.867 1.745 1.82 2.575 2.746 1.392 1.564 2.832 3.175 4.549 4.482 1.735 1.315 4.262 2.479 6.798 2.479 1.145 0 2.299-.238 3.386-.81 1.9-1.001 3.09-2.71 4.132-4.507.108.016.217.033.33.033 1.2 0 2.172-.972 2.172-2.172a2.14 2.14 0 0 0-.485-1.347c.097-.15.187-.313.287-.457 1.593-2.278 4.063-4.071 6.847-4.996v-1.516c-3.3.972-6.15 2.984-8.039 5.683z" opacity=".1"/><path fill="#fff" d="M392.13 367.93v1.516c-2.785.925-5.254 2.717-6.847 4.996-.581.83-1.096 1.784-1.602 2.699-1.23 2.222-2.498 4.52-4.834 5.75-1.087.572-2.241.81-3.386.81-2.536 0-5.063-1.163-6.799-2.479-1.716-1.306-3.156-2.918-4.548-4.481-.83-.925-1.678-1.879-2.575-2.747-1.955-1.907-5.006-4.1-8.324-3.719-3.672.42-6.246 3.662-8.745 6.79l-.543.686c-2.222 2.756-6.666 7.143-11.558 5.617-2.908-.915-4.539-3.49-6.112-5.989-.763-1.21-1.554-2.46-2.47-3.48-1.888-2.098-4.768-3.328-7.896-3.385-3.127-.038-6.055 1.087-8.01 3.118-.982 1.02-1.745 2.203-2.555 3.452-.572.868-1.154 1.774-1.812 2.613-2.05 2.603-4.596 3.957-7 3.728-3.117-.295-5.006-2.851-6.817-5.33-.582-.782-1.183-1.602-1.793-2.298-1.83-2.08-4.396-3.52-7.276-4.082v-1.487c3.31.6 6.265 2.222 8.363 4.605.658.754 1.278 1.593 1.879 2.403 1.697 2.318 3.309 4.501 5.778 4.74 2.699.257 4.902-2.136 5.712-3.176.63-.791 1.192-1.668 1.745-2.508.81-1.249 1.65-2.546 2.727-3.661 2.241-2.327 5.56-3.643 9.078-3.567 3.538.058 6.8 1.469 8.955 3.862 1 1.106 1.83 2.413 2.622 3.681 1.507 2.375 2.918 4.615 5.321 5.369 4.062 1.278 8-2.67 9.984-5.14l.543-.677c2.556-3.204 5.445-6.847 9.717-7.333 3.89-.439 7.324 2.002 9.508 4.12.925.905 1.792 1.887 2.641 2.831 1.402 1.574 2.737 3.071 4.339 4.282 2.183 1.66 5.76 3.051 8.63 1.545 1.945-1.02 3.06-3.033 4.233-5.169.525-.944 1.069-1.926 1.688-2.822 1.888-2.699 4.74-4.71 8.039-5.683z"/><path fill="#ff2e56" d="M385.481 376.246a2.171 2.171 0 1 1-4.344 0 2.17 2.17 0 0 1 2.172-2.165c1.2 0 2.172.972 2.172 2.165zM356.86 370.095a2.171 2.171 0 1 1-4.344 0 2.17 2.17 0 0 1 2.171-2.165c1.2 0 2.172.972 2.172 2.165zM336.376 382.872a2.171 2.171 0 1 1-4.343 0 2.17 2.17 0 0 1 2.171-2.165c1.2 0 2.172.972 2.172 2.165zM319.474 370.095a2.171 2.171 0 1 1-4.344 0 2.17 2.17 0 0 1 2.172-2.165c1.2 0 2.172.972 2.172 2.165zM297.843 382.017a2.171 2.171 0 1 1-4.344 0 2.17 2.17 0 0 1 2.172-2.165c1.2 0 2.172.972 2.172 2.165z"/><path fill="#6737c1" d="M387.038 344.163H228.014a4.812 4.812 0 0 1-4.812-4.812v-65.144a4.812 4.812 0 0 1 4.812-4.812h159.024a4.812 4.812 0 0 1 4.812 4.812v65.144a4.812 4.812 0 0 1-4.812 4.812z"/><path d="M359.436 286.857v46.467a2.875 2.875 0 0 1-2.87 2.88h-7.724a2.877 2.877 0 0 1-2.88-2.88v-46.467a2.877 2.877 0 0 1 2.88-2.88h7.724a2.875 2.875 0 0 1 2.87 2.88zM316.4 286.857v46.467a2.875 2.875 0 0 1-2.87 2.88h-7.723a2.877 2.877 0 0 1-2.88-2.88v-46.467a2.877 2.877 0 0 1 2.88-2.88h7.724a2.875 2.875 0 0 1 2.87 2.88zM337.923 286.857v46.467a2.877 2.877 0 0 1-2.88 2.88h-7.714a2.877 2.877 0 0 1-2.88-2.88v-46.467a2.877 2.877 0 0 1 2.88-2.88h7.714a2.877 2.877 0 0 1 2.88 2.88zM380.958 286.857v46.467a2.877 2.877 0 0 1-2.88 2.88h-7.714a2.877 2.877 0 0 1-2.88-2.88v-46.467a2.877 2.877 0 0 1 2.88-2.88h7.714a2.877 2.877 0 0 1 2.88 2.88z" opacity=".1"/><g opacity=".1"><path d="m267.368 320.115 7.219 11.36c-3.774 2.138-8.135 3.347-12.801 3.347-14.487 0-26.238-11.75-26.238-26.238 0-14.486 11.751-26.237 26.238-26.237 3.786 0 7.39.806 10.627 2.248L266.28 296.6a13.037 13.037 0 0 0-4.495-.805c-7.073 0-12.801 5.728-12.801 12.788 0 7.073 5.728 12.801 12.8 12.801a13.05 13.05 0 0 0 5.583-1.27z"/><path d="M288.023 308.584c0 8.795-4.324 16.576-10.98 21.327l-7.22-11.384a12.747 12.747 0 0 0 4.752-9.943c0-.366-.012-.72-.037-1.075l13.204-2.65c.196 1.209.281 2.455.281 3.725zM268.883 297.92l6.12-11.994a26.22 26.22 0 0 1 12.19 16.062l-13.229 2.663c-.892-2.785-2.724-5.13-5.081-6.73z"/></g><path fill="#0df3ff" d="m265.382 318.31 7.219 11.36c-3.775 2.138-8.135 3.347-12.802 3.347-14.486 0-26.237-11.75-26.237-26.238 0-14.486 11.75-26.237 26.237-26.237 3.787 0 7.39.806 10.627 2.248l-6.132 12.007a13.037 13.037 0 0 0-4.495-.806c-7.072 0-12.8 5.728-12.8 12.788 0 7.073 5.728 12.802 12.8 12.802a13.05 13.05 0 0 0 5.583-1.27z"/><path fill="#ff2e56" d="M286.037 306.78c0 8.794-4.324 16.575-10.981 21.326l-7.22-11.384a12.747 12.747 0 0 0 4.752-9.943c0-.366-.012-.72-.036-1.074l13.204-2.65a23.37 23.37 0 0 1 .281 3.724z"/><path fill="#fcc922" d="m266.896 296.116 6.12-11.995a26.22 26.22 0 0 1 12.19 16.062l-13.228 2.664c-.892-2.786-2.724-5.13-5.082-6.731z"/><path fill="#ff2e56" d="M314.264 284.714v46.47a2.875 2.875 0 0 1-2.873 2.873h-7.72a2.877 2.877 0 0 1-2.882-2.873v-46.47a2.878 2.878 0 0 1 2.882-2.883h7.72a2.876 2.876 0 0 1 2.873 2.883z"/><path fill="#ab1447" d="M314.264 299.318v31.704a2.874 2.874 0 0 1-2.873 2.872h-7.72a2.877 2.877 0 0 1-2.882-2.872v-31.704a2.878 2.878 0 0 1 2.882-2.883h7.72a2.876 2.876 0 0 1 2.873 2.883z"/><path fill="#fcc922" d="M335.782 284.551v46.471a2.874 2.874 0 0 1-2.873 2.872h-7.72a2.877 2.877 0 0 1-2.882-2.872v-46.47a2.878 2.878 0 0 1 2.882-2.883h7.72a2.876 2.876 0 0 1 2.873 2.882z"/><path fill="#ffa903" d="M335.782 312.973v18.05a2.874 2.874 0 0 1-2.873 2.871h-7.72a2.877 2.877 0 0 1-2.882-2.872v-18.05a2.878 2.878 0 0 1 2.882-2.881h7.72a2.876 2.876 0 0 1 2.873 2.882z"/><path fill="#ff2e56" d="M357.3 284.714v46.47a2.875 2.875 0 0 1-2.873 2.873h-7.72a2.877 2.877 0 0 1-2.882-2.873v-46.47a2.879 2.879 0 0 1 2.882-2.883h7.72a2.876 2.876 0 0 1 2.873 2.883z"/><path fill="#ab1447" d="M357.3 322.759v8.263a2.874 2.874 0 0 1-2.873 2.872h-7.72a2.877 2.877 0 0 1-2.882-2.872v-8.263a2.878 2.878 0 0 1 2.882-2.883h7.72a2.876 2.876 0 0 1 2.873 2.883z"/><path fill="#fcc922" d="M378.817 284.551v46.471a2.874 2.874 0 0 1-2.872 2.872h-7.72a2.877 2.877 0 0 1-2.883-2.872v-46.47a2.878 2.878 0 0 1 2.883-2.883h7.72a2.876 2.876 0 0 1 2.872 2.882z"/><path fill="#ffa903" d="M378.817 305.557v25.465a2.874 2.874 0 0 1-2.872 2.872h-7.72a2.877 2.877 0 0 1-2.883-2.872v-25.465a2.878 2.878 0 0 1 2.883-2.883h7.72a2.876 2.876 0 0 1 2.872 2.883z"/><path fill="#fff" d="M407.724 204.31v36.678c0 1.753-1.845 3.174-4.12 3.174h-63.04c-2.275 0-4.128-1.421-4.128-3.174v-36.679c0-1.753 1.853-3.18 4.129-3.18h63.04c2.274 0 4.12 1.427 4.12 3.18z"/><path fill="#0df3ff" d="M401.728 209.015v30.413h-59.291v-21.566l.025-.01 2.005-.866a5.843 5.843 0 0 1 2.619 1.063c.473.334.881.698 1.264 1.053.345.315.665.61 1.022.866 1.214.895 2.874 1.417 4.56 1.417 1.724-.03 3.347-.492 4.573-1.378.549-.403 1.034-.886 1.533-1.397.715-.709 1.443-1.447 2.452-2.018 1.418-.787 3.219-1.121 4.943-.915 1.929.236 3.474 1.22 4.828 2.086.358.236.715.453 1.06.66l.473.275c1.673.994 3.423 2.017 5.313 2.726 2.95 1.082 5.965 1.161 8.073.187 1.609-.748 2.886-2.165 3.87-4.34.23-.511.447-1.033.651-1.545.562-1.377 1.137-2.794 2.12-4.084 1.316-1.722 3.832-3.513 6.987-3.395.537.02.945.365.92.768z" opacity=".5"/><path fill="#00a5d7" d="M401.728 209.015c-.026.413-.537.718-1.01.709-2.337-.06-4.265 1.377-5.249 2.666-.868 1.142-1.392 2.421-1.941 3.77a51.452 51.452 0 0 1-.665 1.593c-1.15 2.52-2.682 4.192-4.7 5.127-1.29.59-2.81.886-4.445.886-1.75 0-3.614-.335-5.441-1.014-2.07-.767-3.896-1.84-5.658-2.883l-.46-.265c-.37-.217-.74-.463-1.124-.7-1.226-.786-2.49-1.593-3.896-1.77-1.213-.148-2.529.098-3.525.659-.78.433-1.405 1.063-2.057 1.722-.523.531-1.072 1.082-1.75 1.565-1.558 1.131-3.69 1.78-5.85 1.78h-.038c-2.158 0-4.304-.669-5.875-1.82-.422-.315-.792-.659-1.15-.984-.37-.334-.715-.65-1.098-.925-.358-.256-1.277-.826-2.21-.689-.523.079-1.022-.177-1.124-.58v-.01c-.102-.404.23-.778.754-.856.409-.06.83-.06 1.251-.01a5.843 5.843 0 0 1 2.619 1.063c.473.334.881.698 1.264 1.053.345.315.665.61 1.022.866 1.214.895 2.874 1.417 4.56 1.417 1.724-.03 3.347-.492 4.573-1.378.549-.403 1.034-.886 1.533-1.397.715-.709 1.443-1.447 2.452-2.018 1.418-.787 3.219-1.121 4.943-.915 1.929.236 3.474 1.22 4.828 2.086.358.236.715.453 1.06.66l.473.275c1.673.994 3.423 2.017 5.313 2.726 2.95 1.082 5.965 1.161 8.073.187 1.609-.748 2.886-2.165 3.87-4.34.23-.511.447-1.033.651-1.545.562-1.377 1.137-2.794 2.12-4.084 1.316-1.722 3.832-3.513 6.987-3.395.537.02.945.365.92.768z"/><path d="M277.767 361.733v32.412a3.461 3.461 0 0 1-3.462 3.462h-45.924a3.461 3.461 0 0 1-3.462-3.462v-32.412a3.453 3.453 0 0 1 3.462-3.452h45.924a3.453 3.453 0 0 1 3.462 3.452z" opacity=".1"/><path fill="#6737c1" d="M276.051 360.234v32.412a3.461 3.461 0 0 1-3.461 3.462h-45.925a3.461 3.461 0 0 1-3.461-3.462v-32.412a3.453 3.453 0 0 1 3.461-3.452h45.925a3.453 3.453 0 0 1 3.461 3.452z"/><path d="M265.225 374.842a1.419 1.419 0 0 0-1.093-1.4l-1.287-.317a1.415 1.415 0 0 1-.985-.854c-.05-.15-.119-.307-.183-.453-.179-.432-.13-.92.124-1.317l.716-1.1a1.432 1.432 0 0 0-.176-1.77l-2.843-2.919a1.422 1.422 0 0 0-1.761-.221l-1.126.682c-.394.236-.886.279-1.306.09-.15-.063-.305-.137-.46-.2a1.42 1.42 0 0 1-.84-1.01l-.272-1.285a1.433 1.433 0 0 0-1.38-1.128l-4.073-.051a1.414 1.414 0 0 0-1.395 1.082l-.317 1.292c-.113.45-.433.822-.864.985-.161.06-.312.118-.468.182a1.41 1.41 0 0 1-1.302-.123l-1.1-.711a1.44 1.44 0 0 0-1.77.176l-2.919 2.843a1.422 1.422 0 0 0-.222 1.761l.687 1.131c.242.39.28.882.091 1.302-.068.15-.142.31-.206.465-.163.431-.55.734-1.005.835l-1.28.271a1.425 1.425 0 0 0-1.127 1.381l-.052 4.073a1.42 1.42 0 0 0 1.093 1.405l1.272.306c.45.114.828.423.985.864.06.151.123.308.192.469.18.422.126.91-.133 1.301l-.711 1.1a1.439 1.439 0 0 0 .176 1.77l2.848 2.92a1.43 1.43 0 0 0 1.766.221l1.126-.682c.394-.236.886-.279 1.301-.09a7.4 7.4 0 0 0 .466.2c.436.174.734.561.835 1.01l.27 1.285c.133.65.713 1.117 1.377 1.128l4.078.051a1.415 1.415 0 0 0 1.4-1.092l.316-1.282c.113-.444.423-.823.854-.98.161-.065.317-.124.468-.188.423-.19.921-.135 1.307.124l1.1.71a1.438 1.438 0 0 0 1.77-.175l2.919-2.849a1.43 1.43 0 0 0 .227-1.766l-.691-1.136a1.375 1.375 0 0 1-.087-1.291c.069-.155.132-.305.185-.45a1.401 1.401 0 0 1 1.015-.836l1.29-.28a1.433 1.433 0 0 0 1.128-1.371l.052-4.088zm-15.524 8.26a6.477 6.477 0 0 1 .617-12.938 6.48 6.48 0 0 1 6.16 6.777 6.48 6.48 0 0 1-6.777 6.16z" opacity=".1"/><path fill="#8f6dff" d="M264.223 374.351a1.419 1.419 0 0 0-1.092-1.4l-1.287-.317a1.415 1.415 0 0 1-.986-.854c-.049-.15-.118-.306-.183-.452-.178-.433-.13-.92.124-1.317l.717-1.1a1.432 1.432 0 0 0-.176-1.77l-2.844-2.919a1.422 1.422 0 0 0-1.761-.222l-1.125.682c-.395.237-.887.28-1.307.091-.15-.063-.305-.137-.46-.2a1.42 1.42 0 0 1-.84-1.011l-.271-1.285a1.433 1.433 0 0 0-1.381-1.128l-4.073-.05a1.414 1.414 0 0 0-1.395 1.082l-.317 1.292c-.113.45-.432.822-.864.985-.161.059-.312.118-.468.182a1.41 1.41 0 0 1-1.302-.123l-1.1-.711a1.44 1.44 0 0 0-1.77.176l-2.918 2.843a1.422 1.422 0 0 0-.222 1.761l.686 1.131c.242.39.28.881.092 1.301-.069.15-.143.31-.206.465-.164.432-.551.735-1.006.836l-1.279.27a1.426 1.426 0 0 0-1.128 1.382l-.051 4.073a1.42 1.42 0 0 0 1.092 1.405l1.272.306c.45.113.828.422.986.864.059.151.123.307.192.469.179.422.125.91-.134 1.3l-.711 1.1a1.439 1.439 0 0 0 .176 1.77l2.848 2.92a1.43 1.43 0 0 0 1.767.222l1.125-.682c.394-.236.887-.28 1.302-.091.154.074.305.137.465.2.436.175.734.562.835 1.011l.27 1.285c.133.65.714 1.116 1.377 1.127l4.078.052a1.415 1.415 0 0 0 1.4-1.092l.317-1.283c.113-.444.422-.822.853-.98.162-.064.318-.123.469-.187.422-.19.92-.135 1.306.123l1.1.712a1.438 1.438 0 0 0 1.77-.177l2.92-2.848a1.43 1.43 0 0 0 .226-1.766l-.69-1.136a1.375 1.375 0 0 1-.087-1.291c.068-.155.132-.305.184-.451a1.401 1.401 0 0 1 1.016-.835l1.29-.28a1.433 1.433 0 0 0 1.127-1.372l.052-4.088zm-15.438 8.302a6.477 6.477 0 0 1 .617-12.938 6.48 6.48 0 0 1 6.16 6.777 6.48 6.48 0 0 1-6.777 6.16z"/><path fill="#452b96" d="M249.478 368.83a7.377 7.377 0 0 0-7.722 7.019 7.377 7.377 0 0 0 7.019 7.721 7.377 7.377 0 0 0 7.722-7.018 7.377 7.377 0 0 0-7.02-7.722zm-.693 13.823a6.477 6.477 0 0 1 .617-12.938 6.48 6.48 0 0 1 6.16 6.777 6.48 6.48 0 0 1-6.777 6.16z"/><path fill="#ffadaf" d="M465.908 279.676c-5.267 5.214-11.411 10.322-18.222 10.555-17.661.613-44.016-44.164-44.016-44.164s-8.312-4.611-8.122-7.784c.37-6.08 5.373-7.783 5.373-7.783s-8.387-6.674-5.563-9.667c2.728-2.919 11.263 11.094 11.75 11.898-.117-.328-1.27-3.533.814-4.58 2.21-1.1 2.083 7.9 2.083 7.9l35.122 26.09s2.506-1.47 4.79-5.023c6.198-9.655 24.346 14.256 15.99 22.558z"/><ellipse cx="500.12" cy="478.797" fill="#edebff" rx="55.88" ry="8.377"/><path fill="#0a163c" d="M500.99 464.146v13.046c0 .798-.642 1.44-1.44 1.44H468.7c-.813 0-1.47-.673-1.439-1.486.047-1.174.172-4.146.58-4.475 6.538-5.287 12.749-3.707 13.578-6.195.83-2.487 1.158-5.256 1.158-5.256s17.318-.25 18.413 2.926zM549.4 464.373v13.047c0 .798-.64 1.44-1.438 1.44h-30.85c-.814 0-1.47-.673-1.44-1.486.047-1.174.172-4.146.58-4.475 6.538-5.287 12.75-3.708 13.578-6.195.83-2.487 1.158-5.256 1.158-5.256s17.318-.25 18.413 2.925z"/><path fill="#fcc922" d="M448.149 257.509c2.03 2.36 5.79 6.503 10.139 10.235 3.073 2.634 6.448 5.049 9.714 6.476 2.607-2.223 5.611-4.747 8.163-7.272 3.17-3.155 5.64-6.339 5.763-9.069.343-7.244-9.302-28.606-9.302-28.606s-15.01 13.212-24.477 28.236z"/><path fill="#ffa903" d="M458.288 267.744c3.073 2.634 6.448 5.049 9.714 6.476 2.607-2.223 5.611-4.747 8.163-7.272 1.866-7.299 1.743-15.12-.315-22.364a40.857 40.857 0 0 0-2.964-7.587c-1.207-2.36-2.648-3.814-3.018-.274-.563 5.584-1.88 11.1-3.856 16.354a65.439 65.439 0 0 1-7.724 14.667z"/><path fill="#373352" d="M468.07 385.779c.097 15.64 3.952 74.665 5.68 76.613 2.854 3.211 13.364 3.266 21.83 2.264 6.393-.755 11.62-2.1 11.524-3.128 0 0-4.074-55.553-3.388-70.645.37-8.246 2.675-37.676 3.141-43.63.055-.687.083-1.057.083-1.057s5.09 39.46 7.19 52.562c2.62 16.423 8.52 65.512 10.029 66.788 2.606 2.195 16.875 2.895 25.505.81 2.91-.714 5.187-1.743 6.147-3.129 1.44-2.072-5.804-48.677-6.613-66.829-.823-18.646-3.32-69.657-13.857-90.759l-61.48 4.226s-.371 3.499-.92 9.055c-1.66 16.753-4.98 52.206-4.87 66.859z"/><path fill="#262040" d="M534.436 324.35c4.88 30.483 7.245 40.466 8.068 69.586.673 23.847 11.757 49.013 7.16 72.42.385.068-.384-.042 0 0 2.91-.714 5.187-1.743 6.147-3.129 1.44-2.072-5.804-48.677-6.613-66.829-.823-18.646-3.32-69.657-13.857-90.759l-61.48 4.226s-.371 3.499-.92 9.055c18.7 10.332 41.71 13.731 61.495 5.43z"/><path fill="#fcc922" d="M468.754 320.114c8.232 1.646 36.087.672 53.868 0 10.386-.398 20.339-1.167 20.778-3.403.411-2.168 5.084-64.334-7.84-82.184a17.085 17.085 0 0 0-1.591-2.154c-12.308-14.625-48.693-15.997-61.343-3.1-10.66 10.88-4.407 90.731-3.872 90.841z"/><path fill="#ffa903" d="M528.516 280.106c3.664 4.376 4.68 10.496 3.993 16.162-.7 5.667-2.909 11.018-5.104 16.286-1.139 2.717-2.908 5.187-4.843 7.56 10.386-.398 20.339-1.167 20.778-3.403.411-2.168 5.084-64.334-7.84-82.184a17.085 17.085 0 0 0-1.591-2.154c-3.115.48-6.216 1.167-9.33 1.523-1.647.192-3.334.288-4.926-.164-1.591-.453-3.087-1.55-3.594-3.129l-2.566-.123c-6.503 3.046-12.046 8.095-15.669 14.31-2.593 4.432-4.568 9.81-9.192 12.06l30.294 16.382c3.485 1.88 7.052 3.842 9.59 6.874z"/><path fill="#ffadaf" d="M451.603 239.445s26.355 44.78 44.017 44.158c6.809-.232 12.958-5.334 18.22-10.547 8.355-8.306-9.786-32.218-15.986-22.557-2.292 3.546-4.79 5.018-4.79 5.018l-39.104-25.522-2.357 9.45z"/><path fill="#fcc922" d="M496.646 250.088c-4.155 2.976 13.175 27.18 17.33 24.204 8.355-8.303 25.064-18.171 25.99-24.44 1.521-10.198-7.36-21.303-15.04-24.292-8.536-3.322-22.078 14.862-28.28 24.528z"/><path fill="#262040" d="M497.185 451.526c.164 4.431-.179 8.959-1.606 13.13 6.394-.755 11.621-2.1 11.525-3.128 0 0-4.074-55.553-3.388-70.645.37-8.246 2.675-37.676 3.141-43.63-.329-.906-.836-1.578-1.577-1.798-4.034-1.221-3.965 10.62-4.171 12.582-.659 6.448-1.331 12.883-2.004 19.331-.754 7.244-1.509 14.489-2.25 21.72-1.234 11.812-2.455 23.708-1.399 35.521.494 5.653 1.523 11.25 1.729 16.917z"/><path fill="#ffadaf" d="M497.773 220.736c.9 2.115 10.057 3.185 10.79.577.096-.325-.901-6.32-1.658-10.37a85.56 85.56 0 0 0-.637-3.184c-.096-.42-.168-.661-.204-.661-.096.036-1.298.384-2.644.769-1.862.528-4.013 1.141-4.013 1.141l-.865 4.182c0 .204-.313 2.62-.541 4.662-.168 1.454-.288 2.716-.228 2.884z"/><path fill="#ff9396" d="M498 217.852c2.428-.84 4.795-2.247 6.19-3.929.023-.024.131-.108.3-.276.528-.493 1.67-1.574 2.415-2.704.685-1.01 1.033-2.055.324-2.716-.324-.3-.648-.444-.96-.468-1.419-.156-2.68 1.886-2.68 1.886l-.169-1.778c-1.862.528-4.013 1.141-4.013 1.141l-.865 4.182c0 .204-.313 2.62-.541 4.662z"/><path fill="#ffadaf" d="M491.217 201.047c-.659 3.717-.874 12.499 2.175 14.474 2.801 1.815 9.126-.316 12.244-4.083.028-.026.133-.111.307-.278 1.018-.939 4.228-4.019 2.733-5.417-1.738-1.655-3.642 1.412-3.642 1.412l-.633-6.697s-11.722-1.947-12.705-.959c-.18.183-.341.734-.479 1.548z"/><path fill="#262040" d="M488.187 202.733c.867.71 2.006.982 3.092 1.222.763.167 1.567.334 2.32.104.689-.198 1.253-.72 1.89-1.065a4.097 4.097 0 0 1 3.719-.063c.731.366 1.337.95 2.09 1.264.762.303 1.9.397 2.308-.313.052.104-.199 3.228.01 3.437.188.209 1.421-.167 1.421-.167s1.901-3.061 3.635-1.41c1.494 1.4-1.713 4.481-2.726 5.421 6.414-2.413 8.503-12.431 2.141-17.863a9.102 9.102 0 0 0-.741-.554l-.01-.01a3.614 3.614 0 0 0-1.15-.627c-.01 0-.02-.01-.031-.01-2.257-1.024-4.973-1.066-7.574-.513-.679-.303-1.326-.71-2.037-.95-1.462-.48-3.103-.157-4.44.606-1.337.773-2.402 1.932-3.322 3.175-.908 1.233-1.713 2.602-1.943 4.116-.24 1.525.168 3.207 1.348 4.2z"/><path fill="#ffadaf" d="M453.96 229.995s-8.292-9.415-9.969-8.465c-1.673.94 2.363 4.564 2.363 4.564"/><path fill="#0d1e43" d="m431.778 238.03 15.2 5.279a1.56 1.56 0 0 0 2.056-1.682l-3.07-22.699a1.56 1.56 0 0 0-1.034-1.264l-15.2-5.28a1.56 1.56 0 0 0-2.056 1.682l3.071 22.7a1.56 1.56 0 0 0 1.033 1.263z"/><path fill="#ffadaf" d="M435.29 228.024c-1.213 10.809 16.313 11.42 16.313 11.42l2.357-9.449-7.024-3.878s-10.432-8.902-11.645 1.907z"/><path fill="#b6b6ef" d="M98.383 410.257c1.442-2.877 1.144-6.64 3.42-8.917 2.553-2.553 6.6-1.877 9.782-3.288 1.593-.706 3.026-2.095 3.19-3.83.157-1.643-.832-3.27-.522-4.89.25-1.306 1.306-2.321 2.463-2.977 1.156-.655 2.447-1.038 3.633-1.638 1.188-.601 2.294-1.452 2.936-2.618s.744-2.684.026-3.805c-1.065-1.66-3.383-1.894-5.35-1.736-7.566.61-14.649 4.474-20.008 9.85-7.5 7.526-11.679 17.559-14.53 27.849-.754 2.724-1.99 5.881-2.148 8.708-.027.48-.018 2.04.685 2.156.556.092 1.663-1.993 2.005-2.415 5.715-7.076 11.838-7.3 14.418-12.449z"/><path fill="#b6b6ef" d="M74.164 416.18c-2.767-2.664-6.289-4.955-7.398-8.632-.93-3.082.008-6.74-1.846-9.37-1.004-1.425-2.65-2.246-4.283-2.858-1.632-.612-3.344-1.085-4.793-2.053-1.45-.968-2.624-2.581-2.49-4.32.127-1.644 1.379-3.079 1.35-4.728-.023-1.33-.89-2.51-1.918-3.353-1.028-.844-2.234-1.442-3.3-2.236-1.068-.794-2.013-1.822-2.446-3.08s-.275-2.772.625-3.753c1.333-1.455 3.656-1.29 5.567-.797 7.351 1.893 13.67 6.91 18.032 13.123 6.105 8.696 8.508 19.295 9.559 29.921.278 2.813.957 6.135.63 8.948-.056.477-.332 2.012-1.044 2.007-.563-.005-1.298-2.248-1.563-2.723a26.046 26.046 0 0 0-4.682-6.096z"/><path fill="#d7d4ff" d="M79.275 425c-.203-4.48-2.17-8.68-4.316-12.617-2.147-3.937-4.537-7.813-5.722-12.139s-.987-9.298 1.727-12.868c.68-.893 1.503-1.685 2.048-2.666.545-.981.765-2.25.175-3.204-.716-1.157-2.274-1.41-3.368-2.217-1.996-1.474-2.033-4.614-.753-6.74 1.28-2.126 3.499-3.478 5.632-4.746.411-4.485-1.896-7.996-2.362-12.208-.229-2.068.063-4.28 1.29-5.96s3.537-2.658 5.482-1.921c3.888 1.472 4.86 8.575 5.604 12.275 1.672 8.312 4.343 8.886 6.638 11.178.875.874 1.606 1.995 1.626 3.23.058 3.526-4.983 4.785-.513 14.747 1.467 3.27 3.308 6.55 3.322 10.134.017 4.02-3.69 7.003-6.579 9.8-2.89 2.795-5.904 5.862-6.676 9.808-.378 1.936-.238 6.141-3.255 6.114z"/><path fill="#8f6dff" d="M95.62 423.809c-.23 20.811-5.88 28.832-13.17 28.832a8.89 8.89 0 0 1-3.28-.604h-.008c-8.515-3.361-9.796-19.127-9.876-28.228H95.62z"/><path fill="#452b96" d="M95.62 423.809c-.23 20.811-5.88 28.832-13.17 28.832a8.89 8.89 0 0 1-3.28-.604c2.476-.807 4.842-.397 7.835-4.295 7.557-9.843 6.471-16.237 6.47-19.864-.128.239.578.52.451.759-25.142-.066-24.465-.027-24.484-.028-1.066-.06-1.938-.417-1.744-2.05.104-.902.663-1.685 1.252-2.378.105-.126.217-.253.336-.372H95.62z"/><path fill="#8f6dff" d="M97.526 422.93v3.359c0 .7-.566 1.258-1.258 1.258h-27.63c-.7 0-1.258-.558-1.258-1.258v-3.358c0-.692.559-1.259 1.258-1.259h27.63c.692 0 1.258.567 1.258 1.259z"/></svg>