<svg xmlns="http://www.w3.org/2000/svg" fill="none" viewBox="0 0 3000 3000"><path fill="#9c4dcc" d="M729.117 2754.2H1467.59H2190.12C2292.8 2754.2 2393.77 2727.86 2483.44 2677.69C2788.56 2506.98 2885.13 2112.53 2693.52 1819.56L2643.38 1742.89C2559.8 1615.1 2542.21 1454.94 2596.04 1311.98L2663.38 1133.13C2760.87 874.22 2546.37 605.098 2273.02 643.367C2190.59 654.906 2106.72 637.739 2035.4 594.734L1642.15 357.602C1459.04 247.187 1238.75 216.978 1032.8 274.039L858.706 322.272C523.509 415.141 334.207 770.549 443.649 1101.53L478.926 1208.21C543.719 1404.17 470.696 1619.42 300.179 1735.11C107.218 1866.03 42.4245 2120.99 149.368 2328.54L203.254 2433.12C304.869 2630.33 507.741 2754.2 729.117 2754.2Z" class="colore7e8ff svgShape"/><path fill="#7808d0" d="M2690.63 2382.23C2692.86 2552.43 2577.4 2696.13 2518.76 2746.45H2428.9C2495.7 2519.37 2606.15 2406.45 2668.05 2368.87C2678.35 2362.62 2690.47 2370.13 2690.63 2382.23Z" class="color032068 svgShape"/><path fill="#f4f4f4" d="M2700.13 1823.81C2792.19 2171.82 2560.14 2583.99 2460.35 2737.42H2258.15C2345 2080.79 2490.61 1921.21 2674.69 1813.38C2684.58 1807.59 2697.19 1812.7 2700.13 1823.81Z" class="colorffffff svgShape"/><path fill="#7808d0" fill-rule="evenodd" d="M2679.22 1821.18C2684.07 1818.34 2690.06 1820.89 2691.44 1826.13C2736.8 1997.58 2702.43 2185.56 2643.72 2350.54C2586.09 2512.45 2505.4 2651.14 2455.48 2728.38H2268.42C2311.64 2406.46 2369.1 2206.46 2437.93 2073.78C2507.24 1940.18 2588.27 1874.46 2679.22 1821.18ZM2708.81 1821.49C2704.32 1804.5 2685.08 1796.84 2670.17 1805.57C2577.03 1860.13 2493.22 1928.12 2421.99 2065.42C2351.01 2202.25 2292.72 2407.52 2249.24 2736.23L2247.89 2746.45H2465.21L2467.87 2742.36C2517.98 2665.31 2601.34 2523.25 2660.64 2356.62C2719.89 2190.15 2755.52 1998.05 2708.81 1821.49Z" class="color032068 svgShape" clip-rule="evenodd"/><path fill="#7808d0" d="M2374.1 2037.91C2453.63 2329.55 2362.6 2632.62 2303.08 2746.45H2154.8C2121.45 2391.02 2257.01 2132.55 2346.14 2030.95C2354.93 2020.92 2370.59 2025.02 2374.1 2037.91Z" class="color032068 svgShape"/><path fill="#7808d0" fill-rule="evenodd" d="M2574.26 2071.44L2622.63 1934.81L2639.56 1940.87L2528.77 2253.82L2601.55 2231.85L2606.72 2249.16L2521.29 2274.95L2420.52 2559.57L2511.22 2525.67L2517.48 2542.6L2412.66 2581.79L2356.49 2740.45L2339.55 2734.39L2453.63 2412.17L2411.45 2293.23L2428.38 2287.16L2463.16 2385.24L2564.07 2100.22L2532.62 1994.64L2549.84 1989.46L2574.26 2071.44Z" class="color032068 svgShape" clip-rule="evenodd"/><path fill="#f4f4f4" fill-rule="evenodd" d="M2298.28 2270.79L2321.2 2144.02L2338.89 2147.25L2292.36 2404.56L2352.82 2372.55L2361.19 2388.54L2288.27 2427.14L2248.36 2647.83L2298.35 2608.34L2309.46 2622.55L2243.51 2674.64L2231.05 2743.55L2213.37 2740.32L2245.33 2563.56L2192.61 2494.46L2206.87 2483.46L2249.67 2539.56L2294.26 2293.02L2251.56 2246.64L2264.75 2234.37L2298.28 2270.79Z" class="colorffffff svgShape" clip-rule="evenodd"/><path fill="#f4f4f4" d="M2454.95 968.974L2481.81 931.808C2486.6 925.189 2497.06 928.6 2497.02 936.766L2496.82 981.549C2496.8 984.259 2498.1 986.808 2500.3 988.395L2540.01 1017.1C2546.41 1021.73 2543.48 1031.82 2535.6 1032.3L2486.15 1035.27C2483.75 1035.42 2481.52 1036.59 2480.04 1038.49L2446.53 1081.37C2441.55 1087.74 2431.33 1084.09 2431.51 1076.01L2432.65 1025C2432.7 1022.51 2431.65 1020.13 2429.78 1018.49L2388.03 981.913C2381.89 976.533 2386.26 966.441 2394.39 967.236L2447.32 972.413C2450.3 972.704 2453.2 971.394 2454.95 968.974Z" class="colorffffff svgShape"/><path fill="#7808d0" d="M2727.16 1465.14L2740.15 1458.02C2747.31 1454.1 2755.3 1461.68 2751.75 1469.04L2745.52 1481.99C2744.34 1484.43 2744.42 1487.29 2745.72 1489.66L2754.34 1505.42C2758.13 1512.34 2751.15 1520.19 2743.83 1517.24L2726.69 1510.31C2724.45 1509.41 2721.94 1509.51 2719.79 1510.59L2701.29 1519.83C2694.06 1523.44 2686.4 1515.76 2690.03 1508.54L2698.39 1491.92C2699.51 1489.7 2699.59 1487.1 2698.6 1484.82L2690.31 1465.6C2687.08 1458.1 2695.36 1450.86 2702.35 1455.07L2718.8 1464.96C2721.36 1466.5 2724.54 1466.57 2727.16 1465.14Z" class="color032068 svgShape"/><path fill="#f4f4f4" d="M766.948 880.645C766.948 993.538 675.43 1085.06 562.538 1085.06C449.645 1085.06 358.127 993.538 358.127 880.645C358.127 767.752 449.645 676.234 562.538 676.234C675.43 676.234 766.948 767.752 766.948 880.645Z" class="colorffffff svgShape"/><path fill="#7808d0" fill-rule="evenodd" d="M562.538 680.856C452.198 680.856 362.75 770.304 362.75 880.645C362.75 990.985 452.198 1080.43 562.538 1080.43C672.879 1080.43 762.327 990.985 762.327 880.645C762.327 770.304 672.879 680.856 562.538 680.856ZM353.506 880.645C353.506 765.199 447.093 671.612 562.538 671.612C677.984 671.612 771.571 765.199 771.571 880.645C771.571 996.09 677.984 1089.68 562.538 1089.68C447.093 1089.68 353.506 996.09 353.506 880.645Z" class="color032068 svgShape" clip-rule="evenodd"/><path fill="#7808d0" d="M533.661 944.918C533.661 926.602 535.865 912.014 540.272 901.155C544.68 890.296 552.718 879.634 564.386 869.167C576.183 858.57 584.026 850 587.915 843.459C591.804 836.786 593.749 829.787 593.749 822.46C593.749 800.35 583.637 789.295 563.413 789.295C553.82 789.295 546.106 792.304 540.272 798.322C534.568 804.209 531.586 812.386 531.327 822.853H474.934C475.193 797.864 483.166 778.305 498.852 764.175C514.668 750.045 536.189 742.98 563.413 742.98C590.897 742.98 612.223 749.718 627.391 763.194C642.559 776.539 650.143 795.444 650.143 819.909C650.143 831.03 647.68 841.562 642.753 851.505C637.827 861.317 629.206 872.242 616.89 884.278L601.139 899.389C591.286 908.94 585.647 920.126 584.221 932.947L583.443 944.918H533.661ZM528.021 1005.17C528.021 996.4 530.938 989.205 536.772 983.579C542.736 977.822 550.32 974.944 559.524 974.944C568.728 974.944 576.248 977.822 582.081 983.579C588.045 989.205 591.027 996.4 591.027 1005.17C591.027 1013.8 588.11 1020.93 582.276 1026.56C576.572 1032.18 568.988 1035 559.524 1035C550.06 1035 542.411 1032.18 536.578 1026.56C530.873 1020.93 528.021 1013.8 528.021 1005.17Z" class="color032068 svgShape"/><path fill="#f4f4f4" d="M1003.83 586.589C1003.83 535.28 1045.42 493.686 1096.73 493.686H2153.66C2204.97 493.686 2246.57 535.28 2246.57 586.589V2653.25C2246.57 2704.56 2204.97 2746.15 2153.66 2746.15H1096.73C1045.42 2746.15 1003.83 2704.55 1003.83 2653.25V586.589Z" class="colorffffff svgShape"/><path fill="#7808d0" fill-rule="evenodd" d="M996.086 586.59C996.086 531.005 1041.15 485.944 1096.73 485.944H2153.66C2209.25 485.944 2254.31 531.005 2254.31 586.59V2653.25C2254.31 2708.83 2209.25 2753.89 2153.66 2753.89H1096.73C1041.15 2753.89 996.086 2708.83 996.086 2653.25V586.59ZM1096.73 501.428C1049.7 501.428 1011.57 539.556 1011.57 586.59V2653.25C1011.57 2700.28 1049.7 2738.41 1096.73 2738.41H2153.66C2200.7 2738.41 2238.82 2700.28 2238.82 2653.25V586.59C2238.82 539.556 2200.7 501.428 2153.66 501.428H1096.73Z" class="color032068 svgShape" clip-rule="evenodd"/><path fill="#9c4dcc" d="M2010.28 1321.94C2010.28 1535.72 1836.97 1709.03 1623.18 1709.03C1409.4 1709.03 1236.09 1535.72 1236.09 1321.94C1236.09 1108.15 1409.4 934.839 1623.18 934.839C1836.97 934.839 2010.28 1108.15 2010.28 1321.94Z" class="colore7e8ff svgShape"/><path fill="#f4f4f4" d="M2172.86 1058.71C2172.86 1157.05 2093.14 1236.77 1994.8 1236.77C1896.45 1236.77 1816.73 1157.05 1816.73 1058.71C1816.73 960.367 1896.45 880.645 1994.8 880.645C2093.14 880.645 2172.86 960.367 2172.86 1058.71Z" class="colorffffff svgShape"/><path fill="#7808d0" fill-rule="evenodd" d="M1994.8 888.387C1900.73 888.387 1824.47 964.643 1824.47 1058.71C1824.47 1152.78 1900.73 1229.03 1994.8 1229.03C2088.86 1229.03 2165.12 1152.78 2165.12 1058.71C2165.12 964.643 2088.86 888.387 1994.8 888.387ZM1808.99 1058.71C1808.99 956.092 1892.18 872.903 1994.8 872.903C2097.42 872.903 2180.6 956.092 2180.6 1058.71C2180.6 1161.33 2097.42 1244.52 1994.8 1244.52C1892.18 1244.52 1808.99 1161.33 1808.99 1058.71Z" class="color032068 svgShape" clip-rule="evenodd"/><path fill="#7808d0" fill-rule="evenodd" d="M1946.41 1054.84L1894.16 1107.1L1946.42 1159.35L1998.67 1107.1L2050.92 1159.35L2103.18 1107.1L2050.92 1054.84L2103.18 1002.58L2050.93 950.322L1998.67 1002.58L1946.41 950.324L1894.15 1002.58L1946.41 1054.84Z" class="color032068 svgShape" clip-rule="evenodd"/><path fill="#7808d0" d="M1378.1 569.202L1337.82 493.682H1912.59L1865.24 572.601C1851.24 595.92 1826.04 610.188 1798.85 610.188H1446.41C1417.82 610.188 1391.55 594.43 1378.1 569.202Z" class="color032068 svgShape"/><path fill="#7808d0" d="M2231.33 540.285H1011.15C1051.54 499.896 1090.11 492.388 1104.35 493.682H2138.12C2187.83 493.682 2220.97 524.751 2231.33 540.285Z" class="color032068 svgShape"/><path fill="#7808d0" d="M2230.39 2701.98H1019.31C1061.29 2743.02 1085.54 2750.65 1100.34 2749.34H2149.36C2201.02 2749.34 2219.63 2717.77 2230.39 2701.98Z" class="color032068 svgShape"/><path fill="#7808d0" d="M1181.89 787.742C1181.89 779.19 1188.82 772.258 1197.38 772.258H1609.68C1618.23 772.258 1625.16 779.19 1625.16 787.742V804.267C1625.16 812.819 1618.23 819.751 1609.68 819.751H1197.38C1188.82 819.751 1181.89 812.819 1181.89 804.267V787.742Z" class="color032068 svgShape"/><path fill="#7808d0" d="M1181.89 1832.9C1181.89 1824.35 1188.82 1817.42 1197.38 1817.42H1609.68C1618.23 1817.42 1625.16 1824.35 1625.16 1832.9V1849.43C1625.16 1857.98 1618.23 1864.91 1609.68 1864.91H1197.38C1188.82 1864.91 1181.89 1857.98 1181.89 1849.43V1832.9Z" class="color032068 svgShape"/><path fill="#7808d0" d="M1181.89 2243.23C1181.89 2234.68 1188.82 2227.74 1197.38 2227.74H1445.12C1453.67 2227.74 1460.6 2234.68 1460.6 2243.23V2258.71C1460.6 2267.26 1453.67 2274.19 1445.12 2274.19H1197.38C1188.82 2274.19 1181.89 2267.26 1181.89 2258.71V2243.23Z" class="color032068 svgShape"/><path fill="#9c4dcc" fill-rule="evenodd" d="M1174.15 1949.03C1174.15 1936.21 1184.55 1925.81 1197.38 1925.81H2025.76C2038.59 1925.81 2048.99 1936.21 2048.99 1949.03V2103.87C2048.99 2116.7 2038.59 2127.1 2025.76 2127.1H1197.38C1184.55 2127.1 1174.15 2116.7 1174.15 2103.87V1949.03ZM1197.38 1941.29C1193.1 1941.29 1189.63 1944.76 1189.63 1949.03V2103.87C1189.63 2108.15 1193.1 2111.61 1197.38 2111.61H2025.76C2030.04 2111.61 2033.51 2108.15 2033.51 2103.87V1949.03C2033.51 1944.76 2030.04 1941.29 2025.76 1941.29H1197.38Z" class="colore7e8ff svgShape" clip-rule="evenodd"/><path fill="#9c4dcc" fill-rule="evenodd" d="M1174.15 2351.61C1174.15 2338.79 1184.55 2328.39 1197.38 2328.39H2025.76C2038.59 2328.39 2048.99 2338.79 2048.99 2351.61V2506.45C2048.99 2519.28 2038.59 2529.68 2025.76 2529.68H1197.38C1184.55 2529.68 1174.15 2519.28 1174.15 2506.45V2351.61ZM1197.38 2343.87C1193.1 2343.87 1189.63 2347.34 1189.63 2351.61V2506.45C1189.63 2510.73 1193.1 2514.2 1197.38 2514.2H2025.76C2030.04 2514.2 2033.51 2510.73 2033.51 2506.45V2351.61C2033.51 2347.34 2030.04 2343.87 2025.76 2343.87H1197.38Z" class="colore7e8ff svgShape" clip-rule="evenodd"/><path fill="#7808d0" fill-rule="evenodd" d="M2159.32 604.366V667.69H2143.83V604.366H2159.32Z" class="color032068 svgShape" clip-rule="evenodd"/><path fill="#7808d0" fill-rule="evenodd" d="M2119.74 612.281V667.69H2104.26V612.281H2119.74Z" class="color032068 svgShape" clip-rule="evenodd"/><path fill="#7808d0" fill-rule="evenodd" d="M2080.16 628.113V667.691H2064.68V628.113H2080.16Z" class="color032068 svgShape" clip-rule="evenodd"/><path fill="#7808d0" fill-rule="evenodd" d="M2040.58 643.944V667.691H2025.1V643.944H2040.58Z" class="color032068 svgShape" clip-rule="evenodd"/><path fill="#7808d0" fill-rule="evenodd" d="M1623.01 1094.82C1552.55 1094.82 1495.44 1152.88 1495.44 1224.5V1313.29C1495.44 1323.83 1503.98 1332.37 1514.51 1332.37C1525.05 1332.37 1533.59 1323.83 1533.59 1313.29V1222.08C1533.59 1171.87 1573.62 1131.18 1623.01 1131.18C1672.39 1131.18 1712.43 1171.87 1712.43 1222.08V1308.53C1712.43 1319.07 1720.97 1327.61 1731.5 1327.61C1742.04 1327.61 1750.58 1319.07 1750.58 1308.53V1224.5C1750.58 1152.88 1693.46 1094.82 1623.01 1094.82Z" class="color032068 svgShape" clip-rule="evenodd"/><path fill="#7808d0" d="M1460.24 1311.6C1460.24 1298.78 1470.64 1288.38 1483.47 1288.38H1762.54C1775.37 1288.38 1785.77 1298.78 1785.77 1311.6V1520.3C1785.77 1533.12 1775.37 1543.52 1762.54 1543.52H1483.47C1470.64 1543.52 1460.24 1533.12 1460.24 1520.3V1311.6Z" class="color032068 svgShape"/><path fill="#f4f4f4" fill-rule="evenodd" d="M1643.78 1426.51C1651.32 1420.44 1656.15 1411.13 1656.15 1400.69C1656.15 1382.39 1641.32 1367.56 1623.02 1367.56C1604.73 1367.56 1589.89 1382.39 1589.89 1400.69C1589.89 1412.06 1595.62 1422.09 1604.35 1428.06L1596.96 1459.1C1595.86 1463.73 1599.37 1468.17 1604.12 1468.17H1644.38C1649.13 1468.17 1652.64 1463.73 1651.54 1459.1L1643.78 1426.51Z" class="colorffffff svgShape" clip-rule="evenodd"/><path fill="#7808d0" d="M2108.32 2003.23H1919.98C1908.29 2003.23 1900.82 1990.76 1906.33 1980.44L2000.5 1804.26C2006.33 1793.35 2021.97 1793.35 2027.81 1804.26L2121.97 1980.44C2127.49 1990.76 2120.01 2003.23 2108.32 2003.23Z" class="color032068 svgShape"/><path fill="#f4f4f4" d="M2005.52 1937.04H2022.47L2025.14 1863.87H2002.85L2005.52 1937.04ZM2025.77 1959.83C2025.77 1956.2 2024.67 1953.24 2022.47 1950.93C2020.24 1948.58 2017.46 1947.41 2014.15 1947.41C2010.84 1947.41 2008.09 1948.58 2005.89 1950.93C2003.66 1953.24 2002.54 1956.2 2002.54 1959.83C2002.54 1963.46 2003.66 1966.45 2005.89 1968.8C2008.09 1971.11 2010.84 1972.26 2014.15 1972.26C2017.46 1972.26 2020.24 1971.11 2022.47 1968.8C2024.67 1966.45 2025.77 1963.46 2025.77 1959.83Z" class="colorffffff svgShape"/><path fill="#9c4dcc" d="M1298.74 2022.94C1298.74 2033.83 1289.91 2042.65 1279.03 2042.65C1268.14 2042.65 1259.31 2033.83 1259.31 2022.94C1259.31 2012.05 1268.14 2003.23 1279.03 2003.23C1289.91 2003.23 1298.74 2012.05 1298.74 2022.94Z" class="colore7e8ff svgShape"/><path fill="#9c4dcc" d="M1393.37 2022.94C1393.37 2033.83 1384.54 2042.65 1373.66 2042.65C1362.77 2042.65 1353.94 2033.83 1353.94 2022.94C1353.94 2012.05 1362.77 2003.23 1373.66 2003.23C1384.54 2003.23 1393.37 2012.05 1393.37 2022.94Z" class="colore7e8ff svgShape"/><path fill="#9c4dcc" d="M1488 2022.94C1488 2033.83 1479.17 2042.65 1468.28 2042.65C1457.4 2042.65 1448.57 2033.83 1448.57 2022.94C1448.57 2012.05 1457.4 2003.23 1468.28 2003.23C1479.17 2003.23 1488 2012.05 1488 2022.94Z" class="colore7e8ff svgShape"/><path fill="#9c4dcc" d="M1582.63 2022.94C1582.63 2033.83 1573.8 2042.65 1562.91 2042.65C1552.03 2042.65 1543.2 2033.83 1543.2 2022.94C1543.2 2012.05 1552.03 2003.23 1562.91 2003.23C1573.8 2003.23 1582.63 2012.05 1582.63 2022.94Z" class="colore7e8ff svgShape"/><path fill="#9c4dcc" d="M1677.26 2022.94C1677.26 2033.83 1668.43 2042.65 1657.54 2042.65C1646.65 2042.65 1637.83 2033.83 1637.83 2022.94C1637.83 2012.05 1646.65 2003.23 1657.54 2003.23C1668.43 2003.23 1677.26 2012.05 1677.26 2022.94Z" class="colore7e8ff svgShape"/><path fill="#9c4dcc" d="M1771.88 2022.94C1771.88 2033.83 1763.06 2042.65 1752.17 2042.65C1741.28 2042.65 1732.46 2033.83 1732.46 2022.94C1732.46 2012.05 1741.28 2003.23 1752.17 2003.23C1763.06 2003.23 1771.88 2012.05 1771.88 2022.94Z" class="colore7e8ff svgShape"/><path fill="#f4f4f4" d="M721.752 1262.44C611.971 1340.12 658.111 1478.21 678.795 1531.73L669.733 1640.92C679.118 1675.3 713.162 1744.05 774.259 1744.05C835.355 1744.05 863.358 1685.36 869.722 1656.01L860.175 1573.15C931.773 1547.26 936.545 1443.69 931.772 1360.83C926.104 1262.44 818.451 1194.02 721.752 1262.44Z" class="colorffffff svgShape"/><path fill="#7808d0" fill-rule="evenodd" d="M857.784 1255.02C820.342 1235.36 771.95 1235.14 725.623 1267.92C673.002 1305.15 657.667 1356.71 658.053 1406.09C658.441 1455.75 674.765 1502.7 685.047 1529.31L685.603 1530.74L676.513 1640.28C681.178 1656.76 691.571 1681.01 707.822 1701.16C724.433 1721.77 746.49 1737.34 774.259 1737.34C802.371 1737.34 822.9 1723.93 837.387 1706.71C851.625 1689.79 859.757 1669.46 862.933 1655.65L852.909 1568.65L857.897 1566.85C890.631 1555.01 908.789 1525.28 918.098 1486.78C927.402 1448.29 927.458 1402.5 925.08 1361.22C922.382 1314.39 895.424 1274.79 857.784 1255.02ZM663.058 1640.3L671.987 1532.7C661.545 1505.52 645.047 1457.47 644.646 1406.2C644.236 1353.74 660.721 1297.41 717.882 1256.97C768.254 1221.32 822.038 1221.1 864.014 1243.14C905.793 1265.08 935.494 1308.89 938.465 1360.45C940.86 1402.02 940.917 1449.45 931.129 1489.93C921.771 1528.64 903.043 1562.35 867.425 1577.51L876.509 1656.35L876.273 1657.43C872.903 1672.97 863.901 1696.03 847.643 1715.35C831.264 1734.82 807.243 1750.75 774.259 1750.75C740.931 1750.75 715.418 1731.95 697.387 1709.58C680.167 1688.23 669.155 1662.92 663.952 1645.11L662.58 1644.97L663.058 1640.3Z" class="color032068 svgShape" clip-rule="evenodd"/><path fill="#7808d0" d="M682.243 1504.65L672.733 1598.55C669.562 1591.59 662.271 1571.42 658.467 1546.38C653.713 1515.09 577.627 1395.11 601.403 1306.43C620.425 1235.49 672.733 1238.62 696.51 1249.05C710.777 1222.97 796.372 1134.29 920.011 1144.72C1043.65 1155.15 1057.92 1332.51 958.053 1358.59C878.164 1379.46 788.446 1367.29 753.574 1358.59C750.404 1365.55 741.21 1388.85 729.797 1426.41C715.531 1473.35 715.531 1483.79 710.776 1452.49C706.021 1421.19 686.999 1363.81 663.222 1421.19C644.201 1467.09 667.977 1495.96 682.243 1504.65Z" class="color032068 svgShape"/><path fill="#7808d0" d="M751.312 1571.27C784.033 1590.54 834.628 1579.3 855.835 1571.27L860.379 1605C813.117 1616.57 767.976 1587.33 751.312 1571.27Z" class="color032068 svgShape"/><path fill="#f4f4f4" d="M770.072 1686.14C838.551 1686.14 871.709 1648 881.664 1625.22C882.82 1622.58 885.341 1620.7 888.223 1620.84C926.012 1622.74 979.627 1645.69 993.067 1650.31C993.427 1650.43 993.742 1650.57 994.077 1650.75C1099.7 1707.5 1199.86 1807.95 1262.63 2170.23C1282.97 2321.42 1319.3 2636.88 1301.86 2689.21C1284.43 2741.55 1163.83 2748.81 1105.71 2745.91H342.89C322.685 2745.91 328.96 2714.03 337.489 2689.86C339.406 2684.43 334.206 2678.44 328.503 2679.23C293.752 2684.07 227.395 2677.78 155.458 2623.79C15.9705 2510.4 177.252 2056.84 281.868 1843.14C364.07 1675.22 559.531 1625.39 651.824 1620.92C654.785 1620.77 657.35 1622.65 658.545 1625.37C668.579 1648.17 701.742 1686.14 770.072 1686.14Z" class="colorffffff svgShape"/><path fill="#7808d0" fill-rule="evenodd" d="M887.97 1627.63C887.913 1627.71 887.854 1627.8 887.806 1627.91C876.873 1652.92 841.432 1692.84 770.072 1692.84C698.868 1692.84 663.426 1653.1 652.411 1628.07C652.294 1627.81 652.151 1627.67 652.081 1627.62C606.734 1629.83 535.722 1643.22 465.967 1676.78C396.224 1710.34 328.147 1763.85 287.888 1846.09C235.744 1952.6 169.472 2118.94 133.653 2272.6C115.737 2349.47 105.528 2422.79 108.348 2483.72C111.175 2544.81 127.016 2591.96 159.585 2618.51C230.063 2671.35 294.594 2677.18 327.579 2672.59C333.074 2671.82 337.958 2674.35 340.952 2677.86C343.957 2681.38 345.717 2686.69 343.81 2692.1C339.61 2704 336.215 2717.16 336.117 2727.02C336.068 2732 336.883 2735.21 337.994 2736.97C338.779 2738.22 339.934 2739.2 342.89 2739.2H1105.88L1106.04 2739.21C1134.74 2740.64 1178.83 2739.55 1217.72 2731.7C1237.17 2727.77 1254.98 2722.22 1268.82 2714.67C1282.71 2707.1 1291.89 2697.93 1295.5 2687.09C1297.37 2681.5 1298.69 2671.66 1299.32 2657.78C1299.95 2644.09 1299.88 2627.08 1299.25 2607.52C1297.98 2568.41 1294.46 2519.49 1289.74 2467.39C1280.31 2363.27 1266.17 2246.78 1256.01 2171.25C1224.69 1990.59 1184.16 1875.84 1138.66 1799.35C1093.3 1723.08 1042.84 1684.56 990.905 1656.65C990.891 1656.65 990.887 1656.65 990.891 1656.65C988.534 1655.84 984.978 1654.48 980.65 1652.83C978.582 1652.05 976.339 1651.19 973.966 1650.3C966.498 1647.48 957.451 1644.16 947.672 1640.92C928.023 1634.42 905.963 1628.48 888.049 1627.55C888.027 1627.57 888 1627.6 887.97 1627.63ZM875.522 1622.53C877.575 1617.84 882.386 1613.83 888.56 1614.14C908.405 1615.14 931.973 1621.6 951.88 1628.19C961.908 1631.5 971.147 1634.9 978.693 1637.74C981.283 1638.72 983.641 1639.62 985.754 1640.43C989.9 1642.01 993.1 1643.23 995.244 1643.96C995.947 1644.2 996.595 1644.49 997.25 1644.84C1050.93 1673.69 1103.37 1713.77 1150.18 1792.49C1196.86 1870.96 1237.78 1987.54 1269.24 2169.08L1269.26 2169.21L1269.28 2169.33C1279.45 2244.99 1293.63 2361.75 1303.09 2466.18C1307.82 2518.39 1311.37 2567.6 1312.65 2607.08C1313.29 2626.82 1313.36 2644.22 1312.71 2658.39C1312.08 2672.37 1310.72 2683.84 1308.22 2691.33C1303.12 2706.66 1290.68 2718.03 1275.24 2726.45C1259.75 2734.89 1240.51 2740.78 1220.37 2744.85C1180.15 2752.97 1134.97 2754.07 1105.54 2752.61H342.89C335.743 2752.61 330.105 2749.61 326.651 2744.12C323.523 2739.16 322.651 2732.89 322.711 2726.88C322.832 2714.76 326.839 2699.9 331.168 2687.63C331.178 2687.6 331.297 2687.2 330.755 2686.57C330.202 2685.92 329.635 2685.84 329.427 2685.87C292.928 2690.95 224.792 2684.21 151.436 2629.16L151.332 2629.08L151.231 2629C114.123 2598.83 97.8464 2546.8 94.9554 2484.34C92.0543 2421.66 102.551 2346.97 120.596 2269.56C156.699 2114.67 223.376 1947.37 275.848 1840.19C317.791 1754.51 388.546 1699.15 460.157 1664.69C531.721 1630.26 604.55 1616.5 651.499 1614.22C657.699 1613.92 662.567 1617.86 664.68 1622.67C673.733 1643.23 704.616 1679.43 770.072 1679.43C835.671 1679.43 866.545 1643.08 875.522 1622.53Z" class="color032068 svgShape" clip-rule="evenodd"/><path fill="#7808d0" d="M312.502 2671.16C264.553 2569.22 162.972 2468.44 108.681 2422.62C104.539 2419.13 98.3359 2421.87 98.1826 2427.29C96.8572 2474.15 103.152 2559.97 138.02 2610.71C173.612 2662.51 259.495 2678.26 306.519 2680.26C311.349 2680.47 314.561 2675.53 312.502 2671.16Z" class="color032068 svgShape"/><path fill="#7808d0" d="M756.991 2410.09C558.222 2612.45 392.291 2677.58 334.171 2684.85L325.453 2724.1C496.325 2696.19 684.342 2503.13 756.991 2410.09Z" class="color032068 svgShape"/><path fill="#f4f4f4" d="M804.936 2344.99V2049.44C804.936 2046.16 807.305 2043.36 810.537 2042.82L953.937 2018.91C958.062 2018.22 961.803 2021.44 961.742 2025.62L957.576 2313.24C957.531 2316.33 955.379 2318.99 952.367 2319.68L813.133 2351.52C808.936 2352.48 804.936 2349.29 804.936 2344.99Z" class="colorffffff svgShape"/><path fill="#7808d0" fill-rule="evenodd" d="M952.836 2012.29C961.085 2010.92 968.566 2017.35 968.445 2025.72L964.279 2313.34C964.189 2319.52 959.886 2324.84 953.861 2326.22L814.627 2358.06C806.233 2359.98 798.232 2353.6 798.232 2344.99V2049.43C798.232 2042.88 802.971 2037.28 809.435 2036.2L952.836 2012.29ZM955.04 2025.52L811.639 2049.43L810.537 2042.82L811.639 2049.43V2344.99L950.873 2313.14L955.04 2025.52Z" class="color032068 svgShape" clip-rule="evenodd"/><path fill="#7808d0" d="M430.067 2257.45C423.093 2271.41 348.7 2306.88 312.375 2322.87C350.734 2312.4 575.366 2234.19 682.887 2196.4C652.375 2196.4 473.657 2248.73 469.298 2240.01C465.811 2233.03 479.469 2144.06 486.734 2100.45C470.751 2146.97 437.042 2243.5 430.067 2257.45Z" class="color032068 svgShape"/><path fill="#f4f4f4" d="M748.271 2178.95C730.835 2206.86 711.947 2219.66 704.682 2222.56L735.194 2322.87C774.425 2301.06 839.81 2305.43 887.758 2279.26C935.707 2253.09 926.989 2126.62 900.835 2135.34C879.912 2142.32 828.186 2164.41 804.938 2174.59V2113.53C774.425 2126.62 770.066 2144.06 748.271 2178.95Z" class="colorffffff svgShape"/><path fill="#7808d0" fill-rule="evenodd" d="M811.642 2103.36V2164.36C837.351 2153.23 879.972 2135.23 898.716 2128.98C904.987 2126.88 910.546 2129.22 914.512 2133.23C918.201 2136.95 920.908 2142.39 922.916 2148.31C926.988 2160.31 929.068 2176.94 928.788 2194.32C928.507 2211.76 925.843 2230.51 920.019 2246.77C914.238 2262.9 905.009 2277.48 890.969 2285.15C865.896 2298.83 836.496 2304.42 809.395 2309.3C808.408 2309.48 807.425 2309.65 806.445 2309.83C779.952 2314.59 756.212 2318.86 738.45 2328.73L731.198 2332.76L696.477 2218.62L702.192 2216.34C707.825 2214.08 725.707 2202.42 742.587 2175.4C746.935 2168.44 750.567 2162.2 753.906 2156.47C754.7 2155.11 755.479 2153.77 756.246 2152.46C760.197 2145.71 763.895 2139.58 767.939 2134.09C776.26 2122.79 785.921 2114.39 802.298 2107.37L811.642 2103.36ZM765.526 2163.16C762.181 2168.9 758.424 2175.35 753.956 2182.51C739.086 2206.31 722.915 2219.95 712.728 2225.98L739.297 2313.32C757.889 2304.91 780.55 2300.85 803.008 2296.82C804.346 2296.58 805.684 2296.34 807.02 2296.1C834.406 2291.17 861.673 2285.85 884.549 2273.37C894.483 2267.95 902.145 2256.91 907.398 2242.24C912.607 2227.7 915.119 2210.47 915.383 2194.11C915.648 2177.69 913.642 2162.7 910.221 2152.62C908.484 2147.5 906.593 2144.29 904.987 2142.66C903.746 2141.41 903.285 2141.58 903.011 2141.68C902.992 2141.69 902.973 2141.7 902.955 2141.7C882.384 2148.56 830.969 2170.52 807.625 2180.73L798.235 2184.84V2124.33C789.675 2129.28 783.965 2134.94 778.732 2142.04C775.149 2146.91 771.763 2152.5 767.814 2159.24C767.071 2160.51 766.31 2161.82 765.526 2163.16Z" class="color032068 svgShape" clip-rule="evenodd"/><path fill="#f4f4f4" d="M1023.81 1635.35C989.804 1635.35 906.667 1714.75 906.667 1752.55C899.112 1782.8 1099.38 2213.79 1246.75 2293.19C1394.12 2372.58 1515.05 2274.28 1503.71 2123.06C1491.81 1964.27 1063.26 1635.35 1023.81 1635.35Z" class="colorffffff svgShape"/><path fill="#7808d0" fill-rule="evenodd" d="M925.802 1721.96C917.627 1734.49 913.371 1745.15 913.371 1752.55V1753.38L913.174 1754.17C913.177 1754.15 913.179 1754.15 913.179 1754.15C913.185 1754.15 913.113 1754.64 913.233 1755.91C913.359 1757.23 913.655 1759.01 914.162 1761.27C915.177 1765.78 916.93 1771.74 919.413 1779.05C924.371 1793.64 932.071 1813.08 942.038 1835.94C961.963 1881.63 990.797 1940.63 1024.47 2001.18C1058.15 2061.74 1096.59 2123.71 1135.72 2175.42C1175 2227.33 1214.43 2268.15 1249.93 2287.28C1321.84 2326.02 1386.11 2320.93 1430.86 2289.14C1475.8 2257.22 1502.56 2197.34 1497.03 2123.56C1495.64 2105.02 1488.09 2083.46 1475.38 2059.68C1462.7 2035.96 1445.09 2010.44 1424.02 1984.05C1381.87 1931.28 1326.24 1875.56 1269.61 1824.65C1213 1773.76 1155.55 1727.83 1109.83 1694.66C1086.96 1678.06 1067.11 1664.72 1051.83 1655.55C1044.17 1650.96 1037.77 1647.48 1032.77 1645.18C1030.27 1644.02 1028.21 1643.21 1026.59 1642.69C1024.88 1642.15 1024.04 1642.06 1023.81 1642.06C1017.37 1642.06 1007.2 1646.06 994.769 1654C982.662 1661.74 969.441 1672.53 957.182 1684.56C944.92 1696.6 933.802 1709.7 925.802 1721.96ZM987.554 1642.7C1000.28 1634.57 1013.25 1628.65 1023.81 1628.65C1026.06 1628.65 1028.43 1629.2 1030.66 1629.91C1032.98 1630.65 1035.57 1631.7 1038.38 1633C1043.99 1635.58 1050.86 1639.33 1058.72 1644.04C1074.46 1653.49 1094.66 1667.08 1117.7 1683.8C1163.81 1717.26 1221.63 1763.48 1278.57 1814.67C1335.5 1865.84 1391.71 1922.12 1434.49 1975.68C1455.88 2002.46 1474.01 2028.68 1487.2 2053.35C1500.35 2077.95 1508.81 2101.4 1510.39 2122.56C1516.2 2200 1488.16 2264.88 1438.63 2300.07C1388.91 2335.39 1319.03 2339.74 1243.57 2299.09C1205.39 2278.52 1164.52 2235.7 1125.03 2183.52C1085.4 2131.14 1046.62 2068.59 1012.75 2007.7C978.883 1946.8 949.856 1887.41 929.75 1841.3C919.702 1818.26 911.844 1798.45 906.72 1783.37C904.163 1775.84 902.244 1769.37 901.082 1764.21C900.502 1761.63 900.084 1759.26 899.886 1757.17C899.728 1755.51 899.669 1753.64 899.971 1751.85C900.213 1740.51 906.272 1727.35 914.576 1714.63C923.227 1701.37 935.019 1687.53 947.792 1674.99C960.568 1662.45 974.508 1651.03 987.554 1642.7Z" class="color032068 svgShape" clip-rule="evenodd"/><path fill="#7808d0" d="M1503.7 2111.72C1364.65 2144.99 1304.69 2259.16 1292.1 2312.09C1324.84 2320.91 1386.56 2349.9 1458.36 2278.06C1509.84 2226.56 1511.26 2147 1503.7 2111.72Z" class="color032068 svgShape"/><path fill="#7808d0" d="M1080.49 2107.94C1171.18 2259.16 1251.79 2304.53 1280.76 2308.31L1288.32 2357.46C1265.64 2353.68 1211.23 2319.65 1129.61 2213.79C1014.74 2068.62 929.338 1845.81 906.666 1752.55C925.56 1816.83 967.125 1918.9 1080.49 2107.94Z" class="color032068 svgShape"/><path fill="#f4f4f4" d="M914.225 1522.55C919.518 1530.63 968.845 1611.15 989.799 1650.41C969.947 1670.59 928.259 1710.97 920.32 1710.97C910.396 1710.97 854.148 1694.14 830.988 1663.86C807.829 1633.58 844.223 1596.57 844.223 1593.21C844.223 1589.84 784.671 1562.93 774.745 1549.47C764.819 1536.01 778.19 1521.94 793.302 1525.72C801.937 1525.72 857.544 1555.96 876.438 1563.52C884.378 1560.83 895.331 1552.18 914.225 1522.55Z" class="colorffffff svgShape"/><path fill="#7808d0" fill-rule="evenodd" d="M914.147 1510.21L919.83 1518.88C925.21 1527.08 974.645 1607.78 995.712 1647.25L998.034 1651.6L994.578 1655.11C984.598 1665.26 969.117 1680.49 955.098 1693.22C948.101 1699.58 941.368 1705.4 935.818 1709.66C933.055 1711.79 930.452 1713.63 928.175 1714.97C927.038 1715.64 925.859 1716.26 924.695 1716.73C923.631 1717.16 922.072 1717.67 920.32 1717.67C916.776 1717.67 910.565 1716.35 903.557 1714.31C896.255 1712.18 887.297 1709.03 877.924 1704.91C859.407 1696.78 838.289 1684.45 825.665 1667.94C811.838 1649.86 816.219 1629.98 822.834 1615.63C826.174 1608.39 830.252 1602.13 833.383 1597.6C834.129 1596.52 834.746 1595.64 835.289 1594.87C834.201 1594.23 832.932 1593.51 831.494 1592.7C828.256 1590.89 824.441 1588.84 820.254 1586.58C817.023 1584.83 813.57 1582.97 809.988 1581.01C801.898 1576.58 793.357 1571.76 786.175 1567.16C782.584 1564.86 779.246 1562.56 776.434 1560.35C773.699 1558.19 771.126 1555.86 769.351 1553.45C762.566 1544.25 763.497 1533.93 769.513 1526.8C775.109 1520.17 784.587 1516.88 794.273 1519.05C796.426 1519.24 798.821 1520 800.81 1520.71C803.421 1521.63 806.549 1522.91 809.973 1524.42C816.837 1527.43 825.298 1531.51 833.974 1535.76C837.815 1537.65 841.686 1539.56 845.485 1541.44C857.638 1547.44 869.061 1553.09 876.451 1556.26C882.308 1553.36 891.957 1545 908.574 1518.95L914.147 1510.21ZM839.129 1597.35C839.144 1597.36 839.14 1597.36 839.122 1597.35C839.124 1597.35 839.127 1597.35 839.129 1597.35ZM779.756 1535.46C777.79 1537.79 776.999 1541.23 780.139 1545.49C780.845 1546.45 782.305 1547.9 784.727 1549.81C787.071 1551.65 790.014 1553.69 793.402 1555.86C800.178 1560.2 808.385 1564.84 816.424 1569.24C819.818 1571.1 823.223 1572.94 826.457 1574.68C830.757 1577 834.756 1579.16 838.032 1580.99C840.918 1582.61 843.464 1584.09 845.328 1585.31C846.235 1585.91 847.185 1586.58 847.974 1587.27C848.357 1587.61 848.903 1588.12 849.405 1588.79C849.752 1589.25 850.926 1590.86 850.926 1593.21C850.926 1594.61 850.506 1595.71 850.339 1596.12C850.119 1596.67 849.863 1597.16 849.66 1597.52C849.251 1598.24 848.736 1599.02 848.242 1599.75C847.79 1600.41 847.144 1601.33 846.442 1602.32C845.775 1603.27 845.058 1604.29 844.413 1605.22C841.444 1609.52 837.871 1615.04 835.008 1621.25C829.216 1633.82 826.979 1647.59 836.312 1659.79C846.848 1673.56 865.434 1684.78 883.312 1692.63C892.137 1696.51 900.548 1699.46 907.308 1701.43C913.663 1703.28 917.978 1704.09 919.808 1704.24C920.143 1704.09 920.656 1703.83 921.367 1703.42C922.966 1702.47 925.078 1701 927.65 1699.03C932.77 1695.09 939.188 1689.56 946.088 1683.29C958.331 1672.17 971.774 1659.05 981.543 1649.22C963.174 1615.47 928.039 1557.51 914.091 1534.96C898.415 1558 887.825 1566.74 878.589 1569.87L876.246 1570.67L873.948 1569.75C866.266 1566.68 852.835 1560.03 839.132 1553.26C835.429 1551.43 831.707 1549.59 828.072 1547.81C819.405 1543.55 811.165 1539.59 804.583 1536.7C801.285 1535.25 798.504 1534.12 796.348 1533.36C794.593 1532.74 793.684 1532.53 793.383 1532.46C793.259 1532.43 793.237 1532.42 793.302 1532.42H792.477L791.676 1532.22C786.476 1530.92 782.016 1532.78 779.756 1535.46ZM919.491 1704.36C919.492 1704.36 919.507 1704.35 919.535 1704.35C919.504 1704.36 919.489 1704.36 919.491 1704.36Z" class="color032068 svgShape" clip-rule="evenodd"/><path fill="#7808d0" d="M770.633 1544.62C773.656 1565.79 802.122 1583.69 815.977 1589.99L827.314 1582.43C822.275 1579.91 808.42 1572.6 793.305 1563.52C778.19 1554.45 771.892 1547.14 770.633 1544.62Z" class="color032068 svgShape"/><path fill="#7808d0" d="M823.536 1676.94C796.329 1649.72 809.681 1617.71 819.757 1605.11L838.649 1601.33C815.977 1639.14 829.832 1664.34 838.649 1669.38L823.536 1676.94Z" class="color032068 svgShape"/></svg>